<svg xmlns="http://www.w3.org/2000/svg" width="256" height="256" viewBox="0 0 100 100"><rect width="100" height="100" rx="20" fill="#7d6ee7"></rect><path d="M38.84 72.24L18.44 51.12L18.44 74.24Q17.96 74.40 17.16 74.60Q16.36 74.80 15.40 74.80L15.40 74.80Q11.88 74.80 11.88 71.84L11.88 71.84L11.88 25.84Q12.28 25.68 13.12 25.48Q13.96 25.28 14.92 25.28L14.92 25.28Q18.44 25.28 18.44 28.24L18.44 28.24L18.44 48.16L40.44 25.36Q42.52 25.44 43.56 26.40Q44.60 27.36 44.60 28.64L44.60 28.64Q44.60 29.68 44.04 30.56Q43.48 31.44 42.44 32.48L42.44 32.48L25.16 49.44Q32.44 56.56 37.76 62.12Q43.08 67.68 46.92 71.12L46.92 71.12Q46.76 72.88 45.84 73.88Q44.92 74.88 43.48 74.88L43.48 74.88Q42.12 74.88 41.04 74.12Q39.96 73.36 38.84 72.24L38.84 72.24ZM70.60 69.92L70.60 69.92Q75.96 69.92 78.72 67.48Q81.48 65.04 81.48 61.20L81.48 61.20Q81.48 57.84 79.36 55.76Q77.24 53.68 72.68 52.32L72.68 52.32L65.72 50.24Q60.60 48.72 57.68 45.76Q54.76 42.80 54.76 37.76L54.76 37.76Q54.76 34.72 55.92 32.28Q57.08 29.84 59.24 28.16Q61.40 26.48 64.40 25.56Q67.40 24.64 71.16 24.64L71.16 24.64Q74.36 24.64 77.12 25.16Q79.88 25.68 81.92 26.60Q83.96 27.52 85.08 28.64Q86.20 29.76 86.20 30.96L86.20 30.96Q86.20 32.08 85.64 32.88Q85.08 33.68 84.20 34.16L84.20 34.16Q82.12 32.56 78.80 31.36Q75.48 30.16 71.40 30.16L71.40 30.16Q66.68 30.16 64 32.16Q61.32 34.16 61.32 37.76L61.32 37.76Q61.32 40.56 63.24 42.32Q65.16 44.08 69.64 45.36L69.64 45.36L74.52 46.80Q80.84 48.64 84.48 51.96Q88.12 55.28 88.12 61.20L88.12 61.20Q88.12 67.52 83.56 71.44Q79 75.36 70.60 75.36L70.60 75.36Q66.92 75.36 63.92 74.72Q60.92 74.08 58.80 73.04Q56.68 72 55.52 70.76Q54.36 69.52 54.36 68.32L54.36 68.32Q54.36 66.96 55.20 66.04Q56.04 65.12 57.16 64.72L57.16 64.72Q58.04 65.60 59.32 66.52Q60.60 67.44 62.28 68.20Q63.96 68.96 66.04 69.44Q68.12 69.92 70.60 69.92Z" fill="#fff"></path></svg>